<?xml version="1.0" encoding="UTF-8"?>
<svg id="Layer_1" data-name="Layer 1" xmlns="http://www.w3.org/2000/svg" viewBox="0 0 414.72 1446.71">
  <defs>
    <style>
      .cls-1 {
        stroke: #fff;
        stroke-width: 3px;
      }

      .cls-1, .cls-2, .cls-3 {
        fill: none;
        stroke-miterlimit: 10;
      }

      .cls-2 {
        stroke: #353635;
      }

      .cls-2, .cls-3 {
        stroke-width: 6px;
      }

      .cls-3 {
        stroke: #e57325;
      }

      .cls-4 {
        fill: #f7ec13;
      }

      .cls-5 {
        fill: #e57325;
      }

      .cls-6 {
        fill: #e9c820;
      }

      .cls-7 {
        fill: #e5a324;
      }

      .cls-8 {
        fill: #e5d11d;
      }

      .cls-9 {
        fill: #d17f29;
      }

      .cls-10 {
        fill: #e29726;
      }

      .cls-11 {
        fill: #353635;
      }
    </style>
  </defs>
  <g>
    <g>
      <path class="cls-5" d="M169.51,160.35V86.55c0-7.6,6.2-13.8,13.8-13.8s13.8,6.2,13.8,13.8v73.8h27.1V86.55c0-7.6,6.2-13.8,13.8-13.8s13.8,6.2,13.8,13.8v73.8h27.2V83.25c0-22-17.8-39.8-39.8-39.8h0c-11.3,0-21.5,4.7-28.7,12.3-7.2-7.6-17.4-12.3-28.7-12.3-22,0-39.8,17.8-39.8,39.8v77.1h27.5Z"/>
      <path class="cls-3" d="M169.51,160.35V86.55c0-7.6,6.2-13.8,13.8-13.8s13.8,6.2,13.8,13.8v73.8h27.1V86.55c0-7.6,6.2-13.8,13.8-13.8s13.8,6.2,13.8,13.8v73.8h27.2V83.25c0-22-17.8-39.8-39.8-39.8h0c-11.3,0-21.5,4.7-28.7,12.3-7.2-7.6-17.4-12.3-28.7-12.3-22,0-39.8,17.8-39.8,39.8v77.1h27.5Z"/>
      <path class="cls-1" d="M169.51,160.35V86.55c0-7.6,6.2-13.8,13.8-13.8s13.8,6.2,13.8,13.8v73.8h27.1V86.55c0-7.6,6.2-13.8,13.8-13.8s13.8,6.2,13.8,13.8v73.8h27.2V83.25c0-22-17.8-39.8-39.8-39.8h0c-11.3,0-21.5,4.7-28.7,12.3-7.2-7.6-17.4-12.3-28.7-12.3-22,0-39.8,17.8-39.8,39.8v77.1h27.5Z"/>
    </g>
    <g>
      <path class="cls-11" d="M96.41,43.15l-30.6,30.6c4.4,0,24.1-.3,25.3-.3,15.7,0,28.4,12.7,28.4,28.4s-12.7,28.4-28.4,28.4-28.4-12.7-28.4-28.4l.1-27.1V31.15h-30.4V101.85c0,32.4,26.3,58.7,58.7,58.7s58.7-26.3,58.7-58.7c.1-31.4-22.5-57-53.4-58.7Z"/>
      <path class="cls-2" d="M96.41,43.15l-30.6,30.6c4.4,0,24.1-.3,25.3-.3,15.7,0,28.4,12.7,28.4,28.4s-12.7,28.4-28.4,28.4-28.4-12.7-28.4-28.4l.1-27.1V31.15h-30.4V101.85c0,32.4,26.3,58.7,58.7,58.7s58.7-26.3,58.7-58.7c.1-31.4-22.5-57-53.4-58.7Z"/>
      <path class="cls-1" d="M96.41,43.15l-30.6,30.6c4.4,0,24.1-.3,25.3-.3,15.7,0,28.4,12.7,28.4,28.4s-12.7,28.4-28.4,28.4-28.4-12.7-28.4-28.4l.1-27.1V31.15h-30.4V101.85c0,32.4,26.3,58.7,58.7,58.7s58.7-26.3,58.7-58.7c.1-31.4-22.5-57-53.4-58.7Z"/>
    </g>
    <path class="cls-5" d="M91.61,115.95h0c-8.8,0-16-7.2-16-16v-15.5h15.5c8.8,0,16,7.2,16,16h0c0,8.6-7,15.5-15.5,15.5Z"/>
    <g>
      <path class="cls-11" d="M360.01,112.65c-4.3,10.3-14.4,17.5-26.2,17.5-15.7,0-28.4-12.7-28.4-28.4s12.7-28.4,28.4-28.4c.6,0,6.4,.1,12.5,.1l20.4-20.4c-9.4-6.4-20.7-10.1-32.9-10.1-32.4,0-58.7,26.3-58.7,58.7s26.3,58.7,58.7,58.7c20.2,0,37.9-10.2,48.5-25.6l-22.3-22.1Z"/>
      <path class="cls-2" d="M360.01,112.65c-4.3,10.3-14.4,17.5-26.2,17.5-15.7,0-28.4-12.7-28.4-28.4s12.7-28.4,28.4-28.4c.6,0,6.4,.1,12.5,.1l20.4-20.4c-9.4-6.4-20.7-10.1-32.9-10.1-32.4,0-58.7,26.3-58.7,58.7s26.3,58.7,58.7,58.7c20.2,0,37.9-10.2,48.5-25.6l-22.3-22.1Z"/>
      <path class="cls-1" d="M360.01,112.65c-4.3,10.3-14.4,17.5-26.2,17.5-15.7,0-28.4-12.7-28.4-28.4s12.7-28.4,28.4-28.4c.6,0,6.4,.1,12.5,.1l20.4-20.4c-9.4-6.4-20.7-10.1-32.9-10.1-32.4,0-58.7,26.3-58.7,58.7s26.3,58.7,58.7,58.7c20.2,0,37.9-10.2,48.5-25.6l-22.3-22.1Z"/>
    </g>
  </g>
  <g>
    <g>
      <path class="cls-9" d="M169.51,376.53v-73.8c0-7.6,6.2-13.8,13.8-13.8s13.8,6.2,13.8,13.8v73.8h27.1v-73.8c0-7.6,6.2-13.8,13.8-13.8s13.8,6.2,13.8,13.8v73.8h27.2v-77.1c0-22-17.8-39.8-39.8-39.8h0c-11.3,0-21.5,4.7-28.7,12.3-7.2-7.6-17.4-12.3-28.7-12.3-22,0-39.8,17.8-39.8,39.8v77.1h27.5Z"/>
      <path class="cls-3" d="M169.51,376.53v-73.8c0-7.6,6.2-13.8,13.8-13.8s13.8,6.2,13.8,13.8v73.8h27.1v-73.8c0-7.6,6.2-13.8,13.8-13.8s13.8,6.2,13.8,13.8v73.8h27.2v-77.1c0-22-17.8-39.8-39.8-39.8h0c-11.3,0-21.5,4.7-28.7,12.3-7.2-7.6-17.4-12.3-28.7-12.3-22,0-39.8,17.8-39.8,39.8v77.1h27.5Z"/>
      <path class="cls-1" d="M169.51,376.53v-73.8c0-7.6,6.2-13.8,13.8-13.8s13.8,6.2,13.8,13.8v73.8h27.1v-73.8c0-7.6,6.2-13.8,13.8-13.8s13.8,6.2,13.8,13.8v73.8h27.2v-77.1c0-22-17.8-39.8-39.8-39.8h0c-11.3,0-21.5,4.7-28.7,12.3-7.2-7.6-17.4-12.3-28.7-12.3-22,0-39.8,17.8-39.8,39.8v77.1h27.5Z"/>
    </g>
    <g>
      <path class="cls-11" d="M96.41,259.33l-30.6,30.6c4.4,0,24.1-.3,25.3-.3,15.7,0,28.4,12.7,28.4,28.4s-12.7,28.4-28.4,28.4-28.4-12.7-28.4-28.4l.1-27.1v-43.6h-30.4v70.7c0,32.4,26.3,58.7,58.7,58.7s58.7-26.3,58.7-58.7c.1-31.4-22.5-57-53.4-58.7Z"/>
      <path class="cls-2" d="M96.41,259.33l-30.6,30.6c4.4,0,24.1-.3,25.3-.3,15.7,0,28.4,12.7,28.4,28.4s-12.7,28.4-28.4,28.4-28.4-12.7-28.4-28.4l.1-27.1v-43.6h-30.4v70.7c0,32.4,26.3,58.7,58.7,58.7s58.7-26.3,58.7-58.7c.1-31.4-22.5-57-53.4-58.7Z"/>
      <path class="cls-1" d="M96.41,259.33l-30.6,30.6c4.4,0,24.1-.3,25.3-.3,15.7,0,28.4,12.7,28.4,28.4s-12.7,28.4-28.4,28.4-28.4-12.7-28.4-28.4l.1-27.1v-43.6h-30.4v70.7c0,32.4,26.3,58.7,58.7,58.7s58.7-26.3,58.7-58.7c.1-31.4-22.5-57-53.4-58.7Z"/>
    </g>
    <path class="cls-5" d="M91.61,332.13h0c-8.8,0-16-7.2-16-16v-15.5h15.5c8.8,0,16,7.2,16,16h0c0,8.6-7,15.5-15.5,15.5Z"/>
    <g>
      <path class="cls-11" d="M360.01,328.83c-4.3,10.3-14.4,17.5-26.2,17.5-15.7,0-28.4-12.7-28.4-28.4s12.7-28.4,28.4-28.4c.6,0,6.4,.1,12.5,.1l20.4-20.4c-9.4-6.4-20.7-10.1-32.9-10.1-32.4,0-58.7,26.3-58.7,58.7s26.3,58.7,58.7,58.7c20.2,0,37.9-10.2,48.5-25.6l-22.3-22.1Z"/>
      <path class="cls-2" d="M360.01,328.83c-4.3,10.3-14.4,17.5-26.2,17.5-15.7,0-28.4-12.7-28.4-28.4s12.7-28.4,28.4-28.4c.6,0,6.4,.1,12.5,.1l20.4-20.4c-9.4-6.4-20.7-10.1-32.9-10.1-32.4,0-58.7,26.3-58.7,58.7s26.3,58.7,58.7,58.7c20.2,0,37.9-10.2,48.5-25.6l-22.3-22.1Z"/>
      <path class="cls-1" d="M360.01,328.83c-4.3,10.3-14.4,17.5-26.2,17.5-15.7,0-28.4-12.7-28.4-28.4s12.7-28.4,28.4-28.4c.6,0,6.4,.1,12.5,.1l20.4-20.4c-9.4-6.4-20.7-10.1-32.9-10.1-32.4,0-58.7,26.3-58.7,58.7s26.3,58.7,58.7,58.7c20.2,0,37.9-10.2,48.5-25.6l-22.3-22.1Z"/>
    </g>
  </g>
  <g>
    <g>
      <path class="cls-10" d="M172.66,588.08v-73.8c0-7.6,6.2-13.8,13.8-13.8s13.8,6.2,13.8,13.8v73.8h27.1v-73.8c0-7.6,6.2-13.8,13.8-13.8s13.8,6.2,13.8,13.8v73.8h27.2v-77.1c0-22-17.8-39.8-39.8-39.8h0c-11.3,0-21.5,4.7-28.7,12.3-7.2-7.6-17.4-12.3-28.7-12.3-22,0-39.8,17.8-39.8,39.8v77.1h27.5Z"/>
      <path class="cls-3" d="M172.66,588.08v-73.8c0-7.6,6.2-13.8,13.8-13.8s13.8,6.2,13.8,13.8v73.8h27.1v-73.8c0-7.6,6.2-13.8,13.8-13.8s13.8,6.2,13.8,13.8v73.8h27.2v-77.1c0-22-17.8-39.8-39.8-39.8h0c-11.3,0-21.5,4.7-28.7,12.3-7.2-7.6-17.4-12.3-28.7-12.3-22,0-39.8,17.8-39.8,39.8v77.1h27.5Z"/>
      <path class="cls-1" d="M172.66,588.08v-73.8c0-7.6,6.2-13.8,13.8-13.8s13.8,6.2,13.8,13.8v73.8h27.1v-73.8c0-7.6,6.2-13.8,13.8-13.8s13.8,6.2,13.8,13.8v73.8h27.2v-77.1c0-22-17.8-39.8-39.8-39.8h0c-11.3,0-21.5,4.7-28.7,12.3-7.2-7.6-17.4-12.3-28.7-12.3-22,0-39.8,17.8-39.8,39.8v77.1h27.5Z"/>
    </g>
    <g>
      <path class="cls-11" d="M99.56,470.88l-30.6,30.6c4.4,0,24.1-.3,25.3-.3,15.7,0,28.4,12.7,28.4,28.4s-12.7,28.4-28.4,28.4-28.4-12.7-28.4-28.4l.1-27.1v-43.6h-30.4v70.7c0,32.4,26.3,58.7,58.7,58.7s58.7-26.3,58.7-58.7c.1-31.4-22.5-57-53.4-58.7Z"/>
      <path class="cls-2" d="M99.56,470.88l-30.6,30.6c4.4,0,24.1-.3,25.3-.3,15.7,0,28.4,12.7,28.4,28.4s-12.7,28.4-28.4,28.4-28.4-12.7-28.4-28.4l.1-27.1v-43.6h-30.4v70.7c0,32.4,26.3,58.7,58.7,58.7s58.7-26.3,58.7-58.7c.1-31.4-22.5-57-53.4-58.7Z"/>
      <path class="cls-1" d="M99.56,470.88l-30.6,30.6c4.4,0,24.1-.3,25.3-.3,15.7,0,28.4,12.7,28.4,28.4s-12.7,28.4-28.4,28.4-28.4-12.7-28.4-28.4l.1-27.1v-43.6h-30.4v70.7c0,32.4,26.3,58.7,58.7,58.7s58.7-26.3,58.7-58.7c.1-31.4-22.5-57-53.4-58.7Z"/>
    </g>
    <path class="cls-5" d="M94.76,543.68h0c-8.8,0-16-7.2-16-16v-15.5h15.5c8.8,0,16,7.2,16,16h0c0,8.6-7,15.5-15.5,15.5Z"/>
    <g>
      <path class="cls-11" d="M363.16,540.38c-4.3,10.3-14.4,17.5-26.2,17.5-15.7,0-28.4-12.7-28.4-28.4s12.7-28.4,28.4-28.4c.6,0,6.4,.1,12.5,.1l20.4-20.4c-9.4-6.4-20.7-10.1-32.9-10.1-32.4,0-58.7,26.3-58.7,58.7s26.3,58.7,58.7,58.7c20.2,0,37.9-10.2,48.5-25.6l-22.3-22.1Z"/>
      <path class="cls-2" d="M363.16,540.38c-4.3,10.3-14.4,17.5-26.2,17.5-15.7,0-28.4-12.7-28.4-28.4s12.7-28.4,28.4-28.4c.6,0,6.4,.1,12.5,.1l20.4-20.4c-9.4-6.4-20.7-10.1-32.9-10.1-32.4,0-58.7,26.3-58.7,58.7s26.3,58.7,58.7,58.7c20.2,0,37.9-10.2,48.5-25.6l-22.3-22.1Z"/>
      <path class="cls-1" d="M363.16,540.38c-4.3,10.3-14.4,17.5-26.2,17.5-15.7,0-28.4-12.7-28.4-28.4s12.7-28.4,28.4-28.4c.6,0,6.4,.1,12.5,.1l20.4-20.4c-9.4-6.4-20.7-10.1-32.9-10.1-32.4,0-58.7,26.3-58.7,58.7s26.3,58.7,58.7,58.7c20.2,0,37.9-10.2,48.5-25.6l-22.3-22.1Z"/>
    </g>
  </g>
  <g>
    <g>
      <path class="cls-7" d="M175.81,785.14v-73.8c0-7.6,6.2-13.8,13.8-13.8s13.8,6.2,13.8,13.8v73.8h27.1v-73.8c0-7.6,6.2-13.8,13.8-13.8s13.8,6.2,13.8,13.8v73.8h27.2v-77.1c0-22-17.8-39.8-39.8-39.8h0c-11.3,0-21.5,4.7-28.7,12.3-7.2-7.6-17.4-12.3-28.7-12.3-22,0-39.8,17.8-39.8,39.8v77.1h27.5Z"/>
      <path class="cls-3" d="M175.81,785.14v-73.8c0-7.6,6.2-13.8,13.8-13.8s13.8,6.2,13.8,13.8v73.8h27.1v-73.8c0-7.6,6.2-13.8,13.8-13.8s13.8,6.2,13.8,13.8v73.8h27.2v-77.1c0-22-17.8-39.8-39.8-39.8h0c-11.3,0-21.5,4.7-28.7,12.3-7.2-7.6-17.4-12.3-28.7-12.3-22,0-39.8,17.8-39.8,39.8v77.1h27.5Z"/>
      <path class="cls-1" d="M175.81,785.14v-73.8c0-7.6,6.2-13.8,13.8-13.8s13.8,6.2,13.8,13.8v73.8h27.1v-73.8c0-7.6,6.2-13.8,13.8-13.8s13.8,6.2,13.8,13.8v73.8h27.2v-77.1c0-22-17.8-39.8-39.8-39.8h0c-11.3,0-21.5,4.7-28.7,12.3-7.2-7.6-17.4-12.3-28.7-12.3-22,0-39.8,17.8-39.8,39.8v77.1h27.5Z"/>
    </g>
    <g>
      <path class="cls-11" d="M102.71,667.94l-30.6,30.6c4.4,0,24.1-.3,25.3-.3,15.7,0,28.4,12.7,28.4,28.4s-12.7,28.4-28.4,28.4-28.4-12.7-28.4-28.4l.1-27.1v-43.6h-30.4v70.7c0,32.4,26.3,58.7,58.7,58.7s58.7-26.3,58.7-58.7c.1-31.4-22.5-57-53.4-58.7Z"/>
      <path class="cls-2" d="M102.71,667.94l-30.6,30.6c4.4,0,24.1-.3,25.3-.3,15.7,0,28.4,12.7,28.4,28.4s-12.7,28.4-28.4,28.4-28.4-12.7-28.4-28.4l.1-27.1v-43.6h-30.4v70.7c0,32.4,26.3,58.7,58.7,58.7s58.7-26.3,58.7-58.7c.1-31.4-22.5-57-53.4-58.7Z"/>
      <path class="cls-1" d="M102.71,667.94l-30.6,30.6c4.4,0,24.1-.3,25.3-.3,15.7,0,28.4,12.7,28.4,28.4s-12.7,28.4-28.4,28.4-28.4-12.7-28.4-28.4l.1-27.1v-43.6h-30.4v70.7c0,32.4,26.3,58.7,58.7,58.7s58.7-26.3,58.7-58.7c.1-31.4-22.5-57-53.4-58.7Z"/>
    </g>
    <path class="cls-5" d="M97.91,740.74h0c-8.8,0-16-7.2-16-16v-15.5h15.5c8.8,0,16,7.2,16,16h0c0,8.6-7,15.5-15.5,15.5Z"/>
    <g>
      <path class="cls-11" d="M366.31,737.44c-4.3,10.3-14.4,17.5-26.2,17.5-15.7,0-28.4-12.7-28.4-28.4s12.7-28.4,28.4-28.4c.6,0,6.4,.1,12.5,.1l20.4-20.4c-9.4-6.4-20.7-10.1-32.9-10.1-32.4,0-58.7,26.3-58.7,58.7s26.3,58.7,58.7,58.7c20.2,0,37.9-10.2,48.5-25.6l-22.3-22.1Z"/>
      <path class="cls-2" d="M366.31,737.44c-4.3,10.3-14.4,17.5-26.2,17.5-15.7,0-28.4-12.7-28.4-28.4s12.7-28.4,28.4-28.4c.6,0,6.4,.1,12.5,.1l20.4-20.4c-9.4-6.4-20.7-10.1-32.9-10.1-32.4,0-58.7,26.3-58.7,58.7s26.3,58.7,58.7,58.7c20.2,0,37.9-10.2,48.5-25.6l-22.3-22.1Z"/>
      <path class="cls-1" d="M366.31,737.44c-4.3,10.3-14.4,17.5-26.2,17.5-15.7,0-28.4-12.7-28.4-28.4s12.7-28.4,28.4-28.4c.6,0,6.4,.1,12.5,.1l20.4-20.4c-9.4-6.4-20.7-10.1-32.9-10.1-32.4,0-58.7,26.3-58.7,58.7s26.3,58.7,58.7,58.7c20.2,0,37.9-10.2,48.5-25.6l-22.3-22.1Z"/>
    </g>
  </g>
  <g>
    <g>
      <path class="cls-6" d="M178.96,992.35v-73.8c0-7.6,6.2-13.8,13.8-13.8s13.8,6.2,13.8,13.8v73.8h27.1v-73.8c0-7.6,6.2-13.8,13.8-13.8s13.8,6.2,13.8,13.8v73.8h27.2v-77.1c0-22-17.8-39.8-39.8-39.8h0c-11.3,0-21.5,4.7-28.7,12.3-7.2-7.6-17.4-12.3-28.7-12.3-22,0-39.8,17.8-39.8,39.8v77.1h27.5Z"/>
      <path class="cls-3" d="M178.96,992.35v-73.8c0-7.6,6.2-13.8,13.8-13.8s13.8,6.2,13.8,13.8v73.8h27.1v-73.8c0-7.6,6.2-13.8,13.8-13.8s13.8,6.2,13.8,13.8v73.8h27.2v-77.1c0-22-17.8-39.8-39.8-39.8h0c-11.3,0-21.5,4.7-28.7,12.3-7.2-7.6-17.4-12.3-28.7-12.3-22,0-39.8,17.8-39.8,39.8v77.1h27.5Z"/>
      <path class="cls-1" d="M178.96,992.35v-73.8c0-7.6,6.2-13.8,13.8-13.8s13.8,6.2,13.8,13.8v73.8h27.1v-73.8c0-7.6,6.2-13.8,13.8-13.8s13.8,6.2,13.8,13.8v73.8h27.2v-77.1c0-22-17.8-39.8-39.8-39.8h0c-11.3,0-21.5,4.7-28.7,12.3-7.2-7.6-17.4-12.3-28.7-12.3-22,0-39.8,17.8-39.8,39.8v77.1h27.5Z"/>
    </g>
    <g>
      <path class="cls-11" d="M105.86,875.15l-30.6,30.6c4.4,0,24.1-.3,25.3-.3,15.7,0,28.4,12.7,28.4,28.4s-12.7,28.4-28.4,28.4-28.4-12.7-28.4-28.4l.1-27.1v-43.6h-30.4v70.7c0,32.4,26.3,58.7,58.7,58.7s58.7-26.3,58.7-58.7c.1-31.4-22.5-57-53.4-58.7Z"/>
      <path class="cls-2" d="M105.86,875.15l-30.6,30.6c4.4,0,24.1-.3,25.3-.3,15.7,0,28.4,12.7,28.4,28.4s-12.7,28.4-28.4,28.4-28.4-12.7-28.4-28.4l.1-27.1v-43.6h-30.4v70.7c0,32.4,26.3,58.7,58.7,58.7s58.7-26.3,58.7-58.7c.1-31.4-22.5-57-53.4-58.7Z"/>
      <path class="cls-1" d="M105.86,875.15l-30.6,30.6c4.4,0,24.1-.3,25.3-.3,15.7,0,28.4,12.7,28.4,28.4s-12.7,28.4-28.4,28.4-28.4-12.7-28.4-28.4l.1-27.1v-43.6h-30.4v70.7c0,32.4,26.3,58.7,58.7,58.7s58.7-26.3,58.7-58.7c.1-31.4-22.5-57-53.4-58.7Z"/>
    </g>
    <path class="cls-5" d="M101.06,947.95h0c-8.8,0-16-7.2-16-16v-15.5h15.5c8.8,0,16,7.2,16,16h0c0,8.6-7,15.5-15.5,15.5Z"/>
    <g>
      <path class="cls-11" d="M369.46,944.65c-4.3,10.3-14.4,17.5-26.2,17.5-15.7,0-28.4-12.7-28.4-28.4s12.7-28.4,28.4-28.4c.6,0,6.4,.1,12.5,.1l20.4-20.4c-9.4-6.4-20.7-10.1-32.9-10.1-32.4,0-58.7,26.3-58.7,58.7s26.3,58.7,58.7,58.7c20.2,0,37.9-10.2,48.5-25.6l-22.3-22.1Z"/>
      <path class="cls-2" d="M369.46,944.65c-4.3,10.3-14.4,17.5-26.2,17.5-15.7,0-28.4-12.7-28.4-28.4s12.7-28.4,28.4-28.4c.6,0,6.4,.1,12.5,.1l20.4-20.4c-9.4-6.4-20.7-10.1-32.9-10.1-32.4,0-58.7,26.3-58.7,58.7s26.3,58.7,58.7,58.7c20.2,0,37.9-10.2,48.5-25.6l-22.3-22.1Z"/>
      <path class="cls-1" d="M369.46,944.65c-4.3,10.3-14.4,17.5-26.2,17.5-15.7,0-28.4-12.7-28.4-28.4s12.7-28.4,28.4-28.4c.6,0,6.4,.1,12.5,.1l20.4-20.4c-9.4-6.4-20.7-10.1-32.9-10.1-32.4,0-58.7,26.3-58.7,58.7s26.3,58.7,58.7,58.7c20.2,0,37.9-10.2,48.5-25.6l-22.3-22.1Z"/>
    </g>
  </g>
  <g>
    <g>
      <path class="cls-8" d="M184.13,1210.45v-73.8c0-7.6,6.2-13.8,13.8-13.8s13.8,6.2,13.8,13.8v73.8h27.1v-73.8c0-7.6,6.2-13.8,13.8-13.8s13.8,6.2,13.8,13.8v73.8h27.2v-77.1c0-22-17.8-39.8-39.8-39.8h0c-11.3,0-21.5,4.7-28.7,12.3-7.2-7.6-17.4-12.3-28.7-12.3-22,0-39.8,17.8-39.8,39.8v77.1h27.5Z"/>
      <path class="cls-3" d="M184.13,1210.45v-73.8c0-7.6,6.2-13.8,13.8-13.8s13.8,6.2,13.8,13.8v73.8h27.1v-73.8c0-7.6,6.2-13.8,13.8-13.8s13.8,6.2,13.8,13.8v73.8h27.2v-77.1c0-22-17.8-39.8-39.8-39.8h0c-11.3,0-21.5,4.7-28.7,12.3-7.2-7.6-17.4-12.3-28.7-12.3-22,0-39.8,17.8-39.8,39.8v77.1h27.5Z"/>
      <path class="cls-1" d="M184.13,1210.45v-73.8c0-7.6,6.2-13.8,13.8-13.8s13.8,6.2,13.8,13.8v73.8h27.1v-73.8c0-7.6,6.2-13.8,13.8-13.8s13.8,6.2,13.8,13.8v73.8h27.2v-77.1c0-22-17.8-39.8-39.8-39.8h0c-11.3,0-21.5,4.7-28.7,12.3-7.2-7.6-17.4-12.3-28.7-12.3-22,0-39.8,17.8-39.8,39.8v77.1h27.5Z"/>
    </g>
    <g>
      <path class="cls-11" d="M111.03,1093.25l-30.6,30.6c4.4,0,24.1-.3,25.3-.3,15.7,0,28.4,12.7,28.4,28.4s-12.7,28.4-28.4,28.4-28.4-12.7-28.4-28.4l.1-27.1v-43.6h-30.4v70.7c0,32.4,26.3,58.7,58.7,58.7s58.7-26.3,58.7-58.7c.1-31.4-22.5-57-53.4-58.7Z"/>
      <path class="cls-2" d="M111.03,1093.25l-30.6,30.6c4.4,0,24.1-.3,25.3-.3,15.7,0,28.4,12.7,28.4,28.4s-12.7,28.4-28.4,28.4-28.4-12.7-28.4-28.4l.1-27.1v-43.6h-30.4v70.7c0,32.4,26.3,58.7,58.7,58.7s58.7-26.3,58.7-58.7c.1-31.4-22.5-57-53.4-58.7Z"/>
      <path class="cls-1" d="M111.03,1093.25l-30.6,30.6c4.4,0,24.1-.3,25.3-.3,15.7,0,28.4,12.7,28.4,28.4s-12.7,28.4-28.4,28.4-28.4-12.7-28.4-28.4l.1-27.1v-43.6h-30.4v70.7c0,32.4,26.3,58.7,58.7,58.7s58.7-26.3,58.7-58.7c.1-31.4-22.5-57-53.4-58.7Z"/>
    </g>
    <path class="cls-5" d="M106.23,1166.05h0c-8.8,0-16-7.2-16-16v-15.5h15.5c8.8,0,16,7.2,16,16h0c0,8.6-7,15.5-15.5,15.5Z"/>
    <g>
      <path class="cls-11" d="M374.63,1162.75c-4.3,10.3-14.4,17.5-26.2,17.5-15.7,0-28.4-12.7-28.4-28.4s12.7-28.4,28.4-28.4c.6,0,6.4,.1,12.5,.1l20.4-20.4c-9.4-6.4-20.7-10.1-32.9-10.1-32.4,0-58.7,26.3-58.7,58.7s26.3,58.7,58.7,58.7c20.2,0,37.9-10.2,48.5-25.6l-22.3-22.1Z"/>
      <path class="cls-2" d="M374.63,1162.75c-4.3,10.3-14.4,17.5-26.2,17.5-15.7,0-28.4-12.7-28.4-28.4s12.7-28.4,28.4-28.4c.6,0,6.4,.1,12.5,.1l20.4-20.4c-9.4-6.4-20.7-10.1-32.9-10.1-32.4,0-58.7,26.3-58.7,58.7s26.3,58.7,58.7,58.7c20.2,0,37.9-10.2,48.5-25.6l-22.3-22.1Z"/>
      <path class="cls-1" d="M374.63,1162.75c-4.3,10.3-14.4,17.5-26.2,17.5-15.7,0-28.4-12.7-28.4-28.4s12.7-28.4,28.4-28.4c.6,0,6.4,.1,12.5,.1l20.4-20.4c-9.4-6.4-20.7-10.1-32.9-10.1-32.4,0-58.7,26.3-58.7,58.7s26.3,58.7,58.7,58.7c20.2,0,37.9-10.2,48.5-25.6l-22.3-22.1Z"/>
    </g>
  </g>
  <g>
    <g>
      <path class="cls-4" d="M184.13,1407.99v-73.8c0-7.6,6.2-13.8,13.8-13.8s13.8,6.2,13.8,13.8v73.8h27.1v-73.8c0-7.6,6.2-13.8,13.8-13.8s13.8,6.2,13.8,13.8v73.8h27.2v-77.1c0-22-17.8-39.8-39.8-39.8h0c-11.3,0-21.5,4.7-28.7,12.3-7.2-7.6-17.4-12.3-28.7-12.3-22,0-39.8,17.8-39.8,39.8v77.1h27.5Z"/>
      <path class="cls-3" d="M184.13,1407.99v-73.8c0-7.6,6.2-13.8,13.8-13.8s13.8,6.2,13.8,13.8v73.8h27.1v-73.8c0-7.6,6.2-13.8,13.8-13.8s13.8,6.2,13.8,13.8v73.8h27.2v-77.1c0-22-17.8-39.8-39.8-39.8h0c-11.3,0-21.5,4.7-28.7,12.3-7.2-7.6-17.4-12.3-28.7-12.3-22,0-39.8,17.8-39.8,39.8v77.1h27.5Z"/>
      <path class="cls-1" d="M184.13,1407.99v-73.8c0-7.6,6.2-13.8,13.8-13.8s13.8,6.2,13.8,13.8v73.8h27.1v-73.8c0-7.6,6.2-13.8,13.8-13.8s13.8,6.2,13.8,13.8v73.8h27.2v-77.1c0-22-17.8-39.8-39.8-39.8h0c-11.3,0-21.5,4.7-28.7,12.3-7.2-7.6-17.4-12.3-28.7-12.3-22,0-39.8,17.8-39.8,39.8v77.1h27.5Z"/>
    </g>
    <g>
      <path class="cls-11" d="M111.03,1290.79l-30.6,30.6c4.4,0,24.1-.3,25.3-.3,15.7,0,28.4,12.7,28.4,28.4s-12.7,28.4-28.4,28.4-28.4-12.7-28.4-28.4l.1-27.1v-43.6h-30.4v70.7c0,32.4,26.3,58.7,58.7,58.7s58.7-26.3,58.7-58.7c.1-31.4-22.5-57-53.4-58.7Z"/>
      <path class="cls-2" d="M111.03,1290.79l-30.6,30.6c4.4,0,24.1-.3,25.3-.3,15.7,0,28.4,12.7,28.4,28.4s-12.7,28.4-28.4,28.4-28.4-12.7-28.4-28.4l.1-27.1v-43.6h-30.4v70.7c0,32.4,26.3,58.7,58.7,58.7s58.7-26.3,58.7-58.7c.1-31.4-22.5-57-53.4-58.7Z"/>
      <path class="cls-1" d="M111.03,1290.79l-30.6,30.6c4.4,0,24.1-.3,25.3-.3,15.7,0,28.4,12.7,28.4,28.4s-12.7,28.4-28.4,28.4-28.4-12.7-28.4-28.4l.1-27.1v-43.6h-30.4v70.7c0,32.4,26.3,58.7,58.7,58.7s58.7-26.3,58.7-58.7c.1-31.4-22.5-57-53.4-58.7Z"/>
    </g>
    <path class="cls-5" d="M106.23,1363.59h0c-8.8,0-16-7.2-16-16v-15.5h15.5c8.8,0,16,7.2,16,16h0c0,8.6-7,15.5-15.5,15.5Z"/>
    <g>
      <path class="cls-11" d="M374.63,1360.29c-4.3,10.3-14.4,17.5-26.2,17.5-15.7,0-28.4-12.7-28.4-28.4s12.7-28.4,28.4-28.4c.6,0,6.4,.1,12.5,.1l20.4-20.4c-9.4-6.4-20.7-10.1-32.9-10.1-32.4,0-58.7,26.3-58.7,58.7s26.3,58.7,58.7,58.7c20.2,0,37.9-10.2,48.5-25.6l-22.3-22.1Z"/>
      <path class="cls-2" d="M374.63,1360.29c-4.3,10.3-14.4,17.5-26.2,17.5-15.7,0-28.4-12.7-28.4-28.4s12.7-28.4,28.4-28.4c.6,0,6.4,.1,12.5,.1l20.4-20.4c-9.4-6.4-20.7-10.1-32.9-10.1-32.4,0-58.7,26.3-58.7,58.7s26.3,58.7,58.7,58.7c20.2,0,37.9-10.2,48.5-25.6l-22.3-22.1Z"/>
      <path class="cls-1" d="M374.63,1360.29c-4.3,10.3-14.4,17.5-26.2,17.5-15.7,0-28.4-12.7-28.4-28.4s12.7-28.4,28.4-28.4c.6,0,6.4,.1,12.5,.1l20.4-20.4c-9.4-6.4-20.7-10.1-32.9-10.1-32.4,0-58.7,26.3-58.7,58.7s26.3,58.7,58.7,58.7c20.2,0,37.9-10.2,48.5-25.6l-22.3-22.1Z"/>
    </g>
  </g>
</svg>